# xmcd
#
# Track frame offsets:
#	150
#	43412
#	75291
#	129525
#	171253
#	175032
#	181986
#	219006
#
# Disc length: 2996 seconds
#
# Revision: 0
# Processed by: cddbd v1.5.2PL0 Copyright (c) Steve Scherf et al.
# Submitted via: EasyCDDAExtractor 10.0.3.1
#
DISCID=600bb208
DTITLE=Paul Butterfield Blues Band - Tribal Stomp Reunion Show [CD2]
DYEAR=1978
DGENRE=Blues
TTITLE0=Payin The Price For Feelin Nice
TTITLE1=Mystery Train
TTITLE2=Little Brown Bird
TTITLE3=I Got My Mojo Workin
TTITLE4=Announcements
TTITLE5=Piano Intro
TTITLE6=Don't Lie To Me
TTITLE7=Wavy Gravy Outros
EXTD=
EXTT0=
EXTT1=
EXTT2=
EXTT3=
EXTT4=
EXTT5=
EXTT6=
EXTT7=
PLAYORDER=
